# xmcd
#
# Track frame offsets:
#	150
#	14239
#	30495
#	49126
#	67785
#	86959
#	101588
#	123688
#	140048
#	157227
#	176431
#	192560
#	209740
#	224682
#	240663
#	262900
#	281280
#	297132
#
# Disc length: 4165 seconds
#
# Revision: 0
# Processed by: cddbd v1.5.2PL0 Copyright (c) Steve Scherf et al.
# Submitted via: dBpowerAMP V4.0
#
DISCID=20104312
DTITLE=Various Artist - Universal Promo Sampler - Summer 07
DYEAR=2006
DGENRE=
TTITLE0=Grace Kelly - Mika
TTITLE1=Say it right - Nelly Furtado
TTITLE2=The sweet escape - Gwen Stefani
TTITLE3=Glamorous - Fergie
TTITLE4=Umbrella - Rihanna
TTITLE5=Straight to the bank - 50 Cent
TTITLE6=Don't matter - Akon
TTITLE7=You know i'm no good - Amy Winehouse
TTITLE8=Because of you - Ne-Yo
TTITLE9=Lost without you - Robin Thicke
TTITLE10=Give it to me - Timbaland
TTITLE11=Never never - Brick and Lace
TTITLE12=Catch you - Sophie Ellis Bextor
TTITLE13=Makes me wonder - Maroon 5
TTITLE14=Starz in their eyes - Just Jack
TTITLE15=She's my man - Scissor Sisters
TTITLE16=Shine - Take That
TTITLE17=Lucky - Lucky Twice
EXTD=
EXTT0=
EXTT1=
EXTT2=
EXTT3=
EXTT4=
EXTT5=
EXTT6=
EXTT7=
EXTT8=
EXTT9=
EXTT10=
EXTT11=
EXTT12=
EXTT13=
EXTT14=
EXTT15=
EXTT16=
EXTT17=
PLAYORDER=
